<svg width="11" height="13" viewBox="0 0 11 13" fill="none" xmlns="http://www.w3.org/2000/svg">
<path d="M7 0H3.5V1.16667H7V0ZM4.66667 7.58333H5.83333V4.08333H4.66667V7.58333ZM9.35083 3.7275L10.1792 2.89917C9.92833 2.60167 9.65417 2.32167 9.35667 2.07667L8.52833 2.905C7.59928 2.15736 6.44253 1.74982 5.25 1.75C2.35083 1.75 0 4.10083 0 7C0 9.89917 2.345 12.25 5.25 12.25C6.23835 12.2505 7.20674 11.9719 8.04366 11.4461C8.88057 10.9204 9.55196 10.169 9.9805 9.27835C10.409 8.38774 10.5773 7.3942 10.4659 6.41215C10.3545 5.4301 9.96797 4.49949 9.35083 3.7275V3.7275ZM5.25 11.0833C2.9925 11.0833 1.16667 9.2575 1.16667 7C1.16667 4.7425 2.9925 2.91667 5.25 2.91667C7.5075 2.91667 9.33333 4.7425 9.33333 7C9.33333 9.2575 7.5075 11.0833 5.25 11.0833Z" fill="#2A2A2A"/>
</svg>
