<svg width="59" height="17" viewBox="0 0 59 17" fill="none" xmlns="http://www.w3.org/2000/svg">
<path d="M12.8335 2.15624L10.655 9.70307H10.2823L8.1037 2.15624C7.73098 0.879179 6.56136 0 5.22467 0H0V16.4285H5.23109V6.71898H5.60384L8.59855 16.4285H12.3387L15.327 6.71898H15.6997V16.4285H20.9309V0H15.7062C14.3759 0 13.2063 0.879179 12.8335 2.15624ZM41.7973 16.4285H47.0606V11.5705H52.3561C55.1258 11.5705 57.4844 10.0047 58.3968 7.80353H41.7973V16.4285ZM32.4727 1.73269L28.7904 9.70949H28.4176V0H23.1865V16.4285H27.6272C28.7968 16.4285 29.857 15.7482 30.3455 14.6958L34.0278 6.72541H34.4006V16.4285H39.6317V0H35.191C34.0213 0 32.9611 0.680242 32.4727 1.73269Z" fill="#929292"/>
<path fill-rule="evenodd" clip-rule="evenodd" d="M52.8761 0C54.3863 0 55.7551 0.577564 56.7898 1.52734C57.9465 2.57978 58.6727 4.0943 58.6727 5.78206C58.6727 6.12859 58.6342 6.46871 58.5763 6.80242H48.8596C45.5692 6.80242 42.7802 4.64618 41.8419 1.66852C41.8291 1.63643 41.8226 1.59792 41.8098 1.55942C41.7841 1.46958 41.7648 1.37332 41.7391 1.28348C41.6427 0.866344 41.5784 0.442797 41.5527 0H52.8761Z" fill="#929292"/>
</svg>
