<svg width="85" height="18" viewBox="0 0 85 18" fill="none" xmlns="http://www.w3.org/2000/svg">
<path fill-rule="evenodd" clip-rule="evenodd" d="M66.2358 1.87695H73.8495V15.6164H66.2358V1.87695Z" fill="#929292"/>
<path fill-rule="evenodd" clip-rule="evenodd" d="M66.7322 8.74574C66.7322 5.95924 68.0288 3.47623 70.0428 1.87606C68.5806 0.717316 66.7046 0 64.6906 0C59.8901 0 56 3.91765 56 8.74574C56 13.5738 59.8901 17.4915 64.6906 17.4915C66.7322 17.4915 68.5806 16.7742 70.0428 15.6154C68.0288 14.0153 66.7322 11.5322 66.7322 8.74574Z" fill="#929292"/>
<path fill-rule="evenodd" clip-rule="evenodd" d="M84.1134 8.74574C84.1134 13.5738 80.2233 17.4915 75.4228 17.4915C73.3813 17.4915 71.5328 16.7742 70.0706 15.6154C72.0846 14.0153 73.3813 11.5322 73.3813 8.74574C73.3813 5.95924 72.0846 3.47623 70.043 1.87606C71.5328 0.717316 73.4088 0 75.4228 0C80.2233 0 84.1134 3.91765 84.1134 8.74574Z" fill="#929292"/>
<path d="M22.2485 2.23936L19.2304 16.7207H15.5933L18.65 2.23936H22.2485ZM37.5709 11.5745L39.4669 6.14894L40.5503 11.6144H37.5709V11.5745ZM41.6337 16.7207H45L42.0593 2.23936H38.9639C38.2674 2.23936 37.687 2.6383 37.4162 3.31649L31.9604 16.7207H35.7911L36.5262 14.5665H41.1694L41.6337 16.7207ZM32.1539 11.9734C32.1926 8.14362 27.0077 7.94415 27.0464 6.22872C27.0464 5.71011 27.5108 5.1516 28.5942 5.03191C29.1359 4.95213 30.5675 4.91223 32.1926 5.67021L32.8117 2.6383C31.9218 2.27926 30.7997 2 29.4067 2C25.8083 2 23.2932 3.95479 23.2545 6.78723C23.2158 8.8617 25.0731 10.0585 26.4273 10.7367C27.8203 11.4548 28.3233 11.9335 28.3233 12.5319C28.3233 13.5293 27.1625 13.9282 26.1565 13.9681C24.3379 14.008 23.2545 13.4495 22.4033 13.0505L21.7455 16.242C22.5967 16.641 24.1445 17 25.7696 17C29.6389 16.9601 32.1152 15.0053 32.1539 11.9734ZM17.1023 2.23936L11.1823 16.7207H7.35168L4.41101 5.1516C4.25623 4.43351 4.10146 4.19415 3.59845 3.875C2.70851 3.39628 1.27687 2.91755 0 2.6383L0.0773861 2.23936H6.26827C7.08083 2.23936 7.73861 2.79787 7.93207 3.71543L9.47979 12.0931L13.2717 2.23936H17.1023Z" fill="#929292"/>
</svg>
